<?xml version="1.0" encoding="UTF-8"?>
<svg version="1.1" xmlns="http://www.w3.org/2000/svg" width="298" height="298">
<path d="M0 0 C1.09187298 -0.00384491 1.09187298 -0.00384491 2.20580399 -0.0077675 C4.63345393 -0.01269043 7.06047543 0.00376233 9.48806763 0.02018738 C11.23277268 0.02103397 12.9774788 0.02055787 14.72218323 0.01885986 C19.45110987 0.01799976 24.17980785 0.03562805 28.90868139 0.05658174 C33.8534361 0.07534593 38.79819614 0.07709878 43.74298096 0.08065796 C53.10327181 0.08997917 62.46345744 0.11459402 71.82370198 0.14470643 C82.48142278 0.17824804 93.13914864 0.19473585 103.79690909 0.20979273 C125.71762091 0.24114347 147.63823803 0.2939055 169.55886841 0.36076355 C169.55886841 1.02076355 169.55886841 1.68076355 169.55886841 2.36076355 C170.26011841 2.42263855 170.96136841 2.48451355 171.68386841 2.54826355 C175.51172735 3.63004977 178.03679102 5.34909469 180.55886841 8.36076355 C184.63681228 15.66225209 185.13578346 22.63359126 185.07644653 30.84367371 C185.08345581 32.05147995 185.09046509 33.25928619 185.09768677 34.50369263 C185.1121823 37.78681268 185.10891756 41.06927785 185.09617043 44.35238695 C185.08596795 47.80395298 185.09545562 51.25547857 185.10171509 54.70704651 C185.10896865 60.49859856 185.09946238 66.2899458 185.08035278 72.08146667 C185.05856762 78.76066456 185.06565618 85.43937426 185.08765841 92.11856043 C185.10585357 97.87429574 185.10835135 103.62988475 185.09790373 109.38563955 C185.09169392 112.81420283 185.09076365 116.24253713 185.10404968 119.67108536 C185.11423 123.49327176 185.09869202 127.31452537 185.07644653 131.13664246 C185.08454346 132.26101212 185.09264038 133.38538177 185.10098267 134.54382324 C185.01418338 142.61108065 183.41706051 147.86741765 178.30886841 154.11076355 C169.64742787 161.19739672 161.57235589 160.94101875 150.92849731 160.89421082 C149.23912301 160.90127545 147.54975504 160.91002276 145.86039734 160.9203186 C141.2879271 160.94276313 136.71580383 160.93988418 132.14329958 160.93099713 C128.31889685 160.92587539 124.49455864 160.93318955 120.67016256 160.94046921 C111.64374898 160.95745306 102.61750451 160.95391824 93.59109497 160.93717957 C84.29559205 160.92026415 75.00055894 160.93608822 65.70510733 160.96840245 C57.70906697 160.99514091 49.71317248 161.00236273 41.71709192 160.99388736 C36.94813572 160.98897001 32.17946201 160.99110888 27.41054153 161.01167488 C22.9238075 161.03009868 18.4377463 161.02399201 13.9510479 160.99947548 C12.31043644 160.99448852 10.66977313 160.99790208 9.02920341 161.01062393 C0.09602506 161.07438239 -7.97490196 160.98393375 -15.44113159 155.36076355 C-19.802037 150.73626256 -21.55632112 146.38026619 -21.60176086 140.08729553 C-21.61180649 138.9939238 -21.62185211 137.90055206 -21.63220215 136.77404785 C-21.63803314 135.57402634 -21.64386414 134.37400482 -21.64987183 133.13761902 C-21.65965561 131.87391983 -21.66943939 130.61022064 -21.67951965 129.30822754 C-21.71088517 125.11483318 -21.73117316 120.92141914 -21.74972534 116.72795105 C-21.75302266 116.01367903 -21.75631999 115.29940701 -21.75971723 114.56349039 C-21.79050357 107.82229239 -21.81720137 101.08108982 -21.83413601 94.33984184 C-21.85602177 85.72967315 -21.89794897 77.12012967 -21.96757358 68.51021087 C-22.01490906 62.44976626 -22.03908241 56.38948974 -22.0463329 50.32886612 C-22.05127596 46.71270982 -22.06622541 43.09725843 -22.10607719 39.48130417 C-22.1500228 35.44058061 -22.14602576 31.40123036 -22.13815308 27.36027527 C-22.15815369 26.17239914 -22.1781543 24.98452301 -22.19876099 23.76065063 C-22.13338662 16.27241655 -20.8216783 10.84443019 -15.44113159 5.36076355 C-14.78113159 5.36076355 -14.12113159 5.36076355 -13.44113159 5.36076355 C-13.44113159 4.70076355 -13.44113159 4.04076355 -13.44113159 3.36076355 C-8.7651003 0.63539636 -5.38759351 -0.01146296 0 0 Z " fill="#FCFCFC" transform="translate(67.44113159179688,70.63923645019531)"/>
<path d="M0 0 C1.09187298 -0.00384491 1.09187298 -0.00384491 2.20580399 -0.0077675 C4.63345393 -0.01269043 7.06047543 0.00376233 9.48806763 0.02018738 C11.23277268 0.02103397 12.9774788 0.02055787 14.72218323 0.01885986 C19.45110987 0.01799976 24.17980785 0.03562805 28.90868139 0.05658174 C33.8534361 0.07534593 38.79819614 0.07709878 43.74298096 0.08065796 C53.10327181 0.08997917 62.46345744 0.11459402 71.82370198 0.14470643 C82.48142278 0.17824804 93.13914864 0.19473585 103.79690909 0.20979273 C125.71762091 0.24114347 147.63823803 0.2939055 169.55886841 0.36076355 C169.55886841 1.02076355 169.55886841 1.68076355 169.55886841 2.36076355 C170.26011841 2.42263855 170.96136841 2.48451355 171.68386841 2.54826355 C175.51172735 3.63004977 178.03679102 5.34909469 180.55886841 8.36076355 C184.63681228 15.66225209 185.13578346 22.63359126 185.07644653 30.84367371 C185.08345581 32.05147995 185.09046509 33.25928619 185.09768677 34.50369263 C185.1121823 37.78681268 185.10891756 41.06927785 185.09617043 44.35238695 C185.08596795 47.80395298 185.09545562 51.25547857 185.10171509 54.70704651 C185.10896865 60.49859856 185.09946238 66.2899458 185.08035278 72.08146667 C185.05856762 78.76066456 185.06565618 85.43937426 185.08765841 92.11856043 C185.10585357 97.87429574 185.10835135 103.62988475 185.09790373 109.38563955 C185.09169392 112.81420283 185.09076365 116.24253713 185.10404968 119.67108536 C185.11423 123.49327176 185.09869202 127.31452537 185.07644653 131.13664246 C185.08454346 132.26101212 185.09264038 133.38538177 185.10098267 134.54382324 C185.01418338 142.61108065 183.41706051 147.86741765 178.30886841 154.11076355 C169.64742787 161.19739672 161.57235589 160.94101875 150.92849731 160.89421082 C149.23912301 160.90127545 147.54975504 160.91002276 145.86039734 160.9203186 C141.2879271 160.94276313 136.71580383 160.93988418 132.14329958 160.93099713 C128.31889685 160.92587539 124.49455864 160.93318955 120.67016256 160.94046921 C111.64374898 160.95745306 102.61750451 160.95391824 93.59109497 160.93717957 C84.29559205 160.92026415 75.00055894 160.93608822 65.70510733 160.96840245 C57.70906697 160.99514091 49.71317248 161.00236273 41.71709192 160.99388736 C36.94813572 160.98897001 32.17946201 160.99110888 27.41054153 161.01167488 C22.9238075 161.03009868 18.4377463 161.02399201 13.9510479 160.99947548 C12.31043644 160.99448852 10.66977313 160.99790208 9.02920341 161.01062393 C0.09602506 161.07438239 -7.97490196 160.98393375 -15.44113159 155.36076355 C-19.802037 150.73626256 -21.55632112 146.38026619 -21.60176086 140.08729553 C-21.61180649 138.9939238 -21.62185211 137.90055206 -21.63220215 136.77404785 C-21.63803314 135.57402634 -21.64386414 134.37400482 -21.64987183 133.13761902 C-21.65965561 131.87391983 -21.66943939 130.61022064 -21.67951965 129.30822754 C-21.71088517 125.11483318 -21.73117316 120.92141914 -21.74972534 116.72795105 C-21.75302266 116.01367903 -21.75631999 115.29940701 -21.75971723 114.56349039 C-21.79050357 107.82229239 -21.81720137 101.08108982 -21.83413601 94.33984184 C-21.85602177 85.72967315 -21.89794897 77.12012967 -21.96757358 68.51021087 C-22.01490906 62.44976626 -22.03908241 56.38948974 -22.0463329 50.32886612 C-22.05127596 46.71270982 -22.06622541 43.09725843 -22.10607719 39.48130417 C-22.1500228 35.44058061 -22.14602576 31.40123036 -22.13815308 27.36027527 C-22.15815369 26.17239914 -22.1781543 24.98452301 -22.19876099 23.76065063 C-22.13338662 16.27241655 -20.8216783 10.84443019 -15.44113159 5.36076355 C-14.78113159 5.36076355 -14.12113159 5.36076355 -13.44113159 5.36076355 C-13.44113159 4.70076355 -13.44113159 4.04076355 -13.44113159 3.36076355 C-8.7651003 0.63539636 -5.38759351 -0.01146296 0 0 Z M-16.44113159 28.36076355 C-16.52363159 46.84076355 -16.60613159 65.32076355 -16.69113159 84.36076355 C-16.72754761 90.18732605 -16.76396362 96.01388855 -16.80148315 102.01701355 C-16.81486416 107.25797563 -16.81486416 107.25797563 -16.82290649 112.49894714 C-16.82903287 114.82612673 -16.84306819 117.15329392 -16.86343384 119.48039246 C-16.89279892 123.01365585 -16.89675279 126.54614604 -16.89523315 130.07951355 C-16.90962559 131.10935364 -16.92401802 132.13919373 -16.93884659 133.20024109 C-16.89787268 140.33780813 -15.68381152 146.11808362 -10.50363159 151.29826355 C-5.98179231 153.6276959 -1.26765792 153.48464065 3.72789001 153.48101807 C4.4386167 153.48187249 5.14934338 153.48272692 5.88160723 153.48360723 C8.25688226 153.48525091 10.63208625 153.4797589 13.00735474 153.47428894 C14.71250405 153.4740068 16.41765349 153.47416532 18.12280273 153.47473145 C22.74840283 153.47501838 27.37397701 153.46913835 31.99957108 153.46215749 C36.83490254 153.45590674 41.67023459 153.45531879 46.50556946 153.45413208 C55.66043622 153.45102385 64.81529105 153.44281729 73.97015256 153.43278259 C84.39328501 153.4216057 94.81641804 153.41610703 105.239555 153.41108716 C126.6793328 153.40063427 148.11909985 153.38304464 169.55886841 153.36076355 C169.55886841 152.70076355 169.55886841 152.04076355 169.55886841 151.36076355 C170.46488784 151.21695629 170.46488784 151.21695629 171.3892107 151.07024384 C174.79609498 149.9561892 175.8061507 147.81652105 177.54820824 144.80606079 C179.41459056 140.29033962 179.20997266 135.80971253 179.12649536 130.98771667 C179.12709804 129.85676323 179.12770071 128.72580978 179.12832165 127.56058502 C179.12460672 123.92055091 179.08661158 120.2818169 179.04714966 116.64201355 C179.03979291 114.38648596 179.0346953 112.13094983 179.03189087 109.87541199 C179.00573811 101.53706517 178.93593161 93.19890142 178.87136841 84.86076355 C178.76824341 66.21576355 178.66511841 47.57076355 178.55886841 28.36076355 C114.20886841 28.36076355 49.85886841 28.36076355 -16.44113159 28.36076355 Z " fill="#2F2E43" transform="translate(67.44113159179688,70.63923645019531)"/>
<path d="M0 0 C0.69112265 -0.00367669 1.3822453 -0.00735338 2.09431106 -0.01114148 C4.41564947 -0.02217528 6.73694312 -0.02602165 9.05830383 -0.02983093 C10.72062319 -0.03609587 12.38294115 -0.04274269 14.04525757 -0.04974365 C19.50963872 -0.07078465 24.97402015 -0.08114674 30.43843079 -0.09111023 C32.32004626 -0.09515791 34.20166158 -0.09927483 36.08327675 -0.10346031 C44.92419213 -0.12251284 53.76509916 -0.13674319 62.60603112 -0.14507228 C72.80792043 -0.15484238 83.00959264 -0.18115572 93.21140546 -0.22157317 C101.0985764 -0.25174694 108.98568517 -0.2665424 116.8729127 -0.26985329 C121.58262659 -0.27220254 126.29210856 -0.28114653 131.00176048 -0.30631447 C135.43494835 -0.32962197 139.86775204 -0.3338177 144.30098534 -0.32355309 C145.92471089 -0.32305825 147.54845551 -0.32936335 149.17212296 -0.34310913 C164.47829546 -0.46539902 164.47829546 -0.46539902 171.23921204 4.14717102 C176.08337879 9.23975658 176.23921204 11.8805687 176.23921204 19.14717102 C111.88921204 19.14717102 47.53921204 19.14717102 -18.76078796 19.14717102 C-18.76078796 12.37031896 -18.60660986 10.14673949 -14.76078796 5.14717102 C-9.91630361 0.65716113 -6.48818977 0.02235191 0 0 Z " fill="#595E6F" transform="translate(69.76078796386719,76.85282897949219)"/>
<!--player button's body-->
<path d="M0 0 C4.09144685 0.67662601 6.57382112 1.90865966 10.08544922 4.10205078 C10.97080856 4.64670486 10.97080856 4.64670486 11.87405396 5.20236206 C13.74816868 6.36030309 15.60793375 7.5393058 17.46826172 8.71923828 C18.7082828 9.48886182 19.94916267 10.25710348 21.19091797 11.02392578 C24.67744688 13.18484795 28.13788041 15.38383346 31.59326172 17.59423828 C32.52299805 18.18430664 33.45273438 18.774375 34.41064453 19.38232422 C35.61865723 20.16397949 35.61865723 20.16397949 36.85107422 20.96142578 C37.53572754 21.40341309 38.22038086 21.84540039 38.92578125 22.30078125 C41.60228771 24.37693516 42.53397907 26.13973796 42.96826172 29.46923828 C42.49297842 33.42993241 41.29853358 34.68822677 38.59326172 37.59423828 C36.44136394 39.0727174 34.36771383 40.38537675 32.10498047 41.66064453 C31.48355667 42.02141586 30.86213287 42.38218719 30.22187805 42.75389099 C28.24678654 43.89762899 26.26406845 45.02731839 24.28076172 46.15673828 C22.96057203 46.91819297 21.64090525 47.68055503 20.32177734 48.44384766 C16.75228677 50.50582585 13.17408147 52.55199365 9.59326172 54.59423828 C8.65614853 55.14590164 8.65614853 55.14590164 7.70010376 55.70870972 C1.27808898 59.46696053 1.27808898 59.46696053 -2.40673828 58.59423828 C-8.24914687 53.54852177 -8.24914687 53.54852177 -8.56063843 49.68572998 C-8.57349884 48.90884827 -8.58635925 48.13196655 -8.59960938 47.33154297 C-8.6156723 46.45012634 -8.63173523 45.56870972 -8.64828491 44.6605835 C-8.69277388 40.62268847 -8.73381096 36.58495794 -8.75683594 32.546875 C-8.77338268 30.41883397 -8.80065565 28.29084822 -8.83886719 26.16308594 C-8.89371626 23.09296875 -8.91552368 20.02415488 -8.93017578 16.95361328 C-8.95284515 16.00653503 -8.97551453 15.05945679 -8.99887085 14.0836792 C-8.98523169 9.80522409 -8.84920441 6.50428374 -6.31152344 2.94677734 C-3.40673828 0.59423828 -3.40673828 0.59423828 0 0 Z " fill="#F8BA64" transform="translate(133.40673828125,122.40576171875)"/>
<!--progress bar-->
<path d="M0 0 C8.19661227 0.93947881 8.19661227 0.93947881 10.9765625 4.08203125 C10.9765625 5.07203125 10.9765625 6.06203125 10.9765625 7.08203125 C50.5765625 7.08203125 90.1765625 7.08203125 130.9765625 7.08203125 C131.3065625 8.73203125 131.6365625 10.38203125 131.9765625 12.08203125 C130.35437954 13.70421421 128.56922338 13.21012606 126.32756042 13.21333313 C125.32226791 13.21734131 124.3169754 13.22134949 123.28121948 13.22547913 C121.61290573 13.22468605 121.61290573 13.22468605 119.91088867 13.22387695 C118.16466469 13.22908859 118.16466469 13.22908859 116.38316345 13.23440552 C113.84530812 13.24177876 111.30744627 13.24711574 108.76958275 13.25069618 C104.75677811 13.25659579 100.74403951 13.27312665 96.73127747 13.29203796 C95.35856539 13.29837577 93.98585325 13.30470139 92.61314106 13.31101513 C91.92556205 13.31418094 91.23798305 13.31734675 90.52956831 13.3206085 C81.18403478 13.36271398 71.83854196 13.39565738 62.49291992 13.40795898 C56.19390361 13.41633569 49.89510711 13.43881337 43.59620076 13.47731465 C40.26149847 13.49709272 36.92719881 13.50726558 33.59242821 13.50448036 C29.87142054 13.50213736 26.1513071 13.52421991 22.43041992 13.55200195 C21.32428345 13.54540054 20.21814697 13.53879913 19.07849121 13.53199768 C18.06473923 13.54446533 17.05098724 13.55693298 16.0065155 13.56977844 C15.12658023 13.5721668 14.24664495 13.57455515 13.34004498 13.57701588 C10.23031352 14.24148545 9.11727632 15.79926985 6.9765625 18.08203125 C2.98198762 19.17146076 0.89957763 19.50340772 -2.8984375 17.76953125 C-5.0234375 16.08203125 -5.0234375 16.08203125 -6.0234375 14.08203125 C-19.8834375 13.58703125 -19.8834375 13.58703125 -34.0234375 13.08203125 C-34.3534375 11.43203125 -34.6834375 9.78203125 -35.0234375 8.08203125 C-34.0234375 7.08203125 -34.0234375 7.08203125 -31.33959961 6.96850586 C-30.17178955 6.97374268 -29.00397949 6.97897949 -27.80078125 6.984375 C-26.54072266 6.98759766 -25.28066406 6.99082031 -23.98242188 6.99414062 C-22.64192641 7.00249722 -21.30143162 7.01096218 -19.9609375 7.01953125 C-18.61653808 7.02454465 -17.2721369 7.02910783 -15.92773438 7.03320312 C-12.62625809 7.04503637 -9.32486947 7.06152154 -6.0234375 7.08203125 C-5.7346875 6.29828125 -5.4459375 5.51453125 -5.1484375 4.70703125 C-3.18650233 0.12918253 -3.18650233 0.12918253 0 0 Z " fill="#2C2C40" transform="translate(100.0234375,201.91796875)"/>
<path d="M0 0 C4.09144685 0.67662601 6.57382112 1.90865966 10.08544922 4.10205078 C10.97080856 4.64670486 10.97080856 4.64670486 11.87405396 5.20236206 C13.74816868 6.36030309 15.60793375 7.5393058 17.46826172 8.71923828 C18.7082828 9.48886182 19.94916267 10.25710348 21.19091797 11.02392578 C24.67744688 13.18484795 28.13788041 15.38383346 31.59326172 17.59423828 C32.52299805 18.18430664 33.45273438 18.774375 34.41064453 19.38232422 C35.61865723 20.16397949 35.61865723 20.16397949 36.85107422 20.96142578 C37.53572754 21.40341309 38.22038086 21.84540039 38.92578125 22.30078125 C41.60228771 24.37693516 42.53397907 26.13973796 42.96826172 29.46923828 C42.49297842 33.42993241 41.29853358 34.68822677 38.59326172 37.59423828 C36.44136394 39.0727174 34.36771383 40.38537675 32.10498047 41.66064453 C31.48355667 42.02141586 30.86213287 42.38218719 30.22187805 42.75389099 C28.24678654 43.89762899 26.26406845 45.02731839 24.28076172 46.15673828 C22.96057203 46.91819297 21.64090525 47.68055503 20.32177734 48.44384766 C16.75228677 50.50582585 13.17408147 52.55199365 9.59326172 54.59423828 C8.65614853 55.14590164 8.65614853 55.14590164 7.70010376 55.70870972 C1.27808898 59.46696053 1.27808898 59.46696053 -2.40673828 58.59423828 C-8.24914687 53.54852177 -8.24914687 53.54852177 -8.56063843 49.68572998 C-8.57349884 48.90884827 -8.58635925 48.13196655 -8.59960938 47.33154297 C-8.6156723 46.45012634 -8.63173523 45.56870972 -8.64828491 44.6605835 C-8.69277388 40.62268847 -8.73381096 36.58495794 -8.75683594 32.546875 C-8.77338268 30.41883397 -8.80065565 28.29084822 -8.83886719 26.16308594 C-8.89371626 23.09296875 -8.91552368 20.02415488 -8.93017578 16.95361328 C-8.95284515 16.00653503 -8.97551453 15.05945679 -8.99887085 14.0836792 C-8.98523169 9.80522409 -8.84920441 6.50428374 -6.31152344 2.94677734 C-3.40673828 0.59423828 -3.40673828 0.59423828 0 0 Z M-0.40673828 6.59423828 C-2.56098869 8.34450992 -2.56098869 8.34450992 -2.65397644 10.42250061 C-2.65255142 11.16116867 -2.6511264 11.89983673 -2.6496582 12.66088867 C-2.65273483 13.4983815 -2.65581146 14.33587433 -2.65898132 15.19874573 C-2.65179581 16.10398483 -2.64461029 17.00922394 -2.63720703 17.94189453 C-2.63674881 18.86892685 -2.63629059 19.79595917 -2.63581848 20.75108337 C-2.63279482 22.71224242 -2.62490514 24.67339903 -2.61254883 26.63452148 C-2.594292 29.6478723 -2.5920391 32.66091606 -2.59228516 35.67431641 C-2.58737013 37.57601179 -2.58154188 39.47770508 -2.57470703 41.37939453 C-2.57359421 42.28665787 -2.57248138 43.1939212 -2.57133484 44.12867737 C-2.9509716 48.18359036 -2.9509716 48.18359036 -1.40673828 51.59423828 C2.347216 52.2567008 3.58873697 51.5973435 6.78076172 49.40673828 C7.66828125 48.7203125 7.66828125 48.7203125 8.57373047 48.02001953 C10.82252678 46.43237804 13.11073719 45.28087747 15.59326172 44.09423828 C19.30042824 42.30495731 22.50947788 40.33485888 25.78857422 37.86376953 C29.20200917 35.46254364 32.91451046 33.55457059 36.59326172 31.59423828 C36.59326172 30.27423828 36.59326172 28.95423828 36.59326172 27.59423828 C34.33530487 25.88268886 32.21646335 24.50786056 29.76904297 23.11767578 C29.0706279 22.70635406 28.37221283 22.29503235 27.65263367 21.87124634 C25.4115251 20.55658047 23.15882303 19.26328949 20.90576172 17.96923828 C19.40566191 17.09031021 17.90630292 16.21011642 16.40771484 15.32861328 C14.96632003 14.48633272 13.52428245 13.64515098 12.08154297 12.80517578 C11.0703112 12.21607925 11.0703112 12.21607925 10.03865051 11.61508179 C6.63575123 9.66283769 3.28411223 7.93257624 -0.40673828 6.59423828 Z " fill="#28273B" transform="translate(133.40673828125,122.40576171875)"/>
<path d="M0 0 C2.125 0.375 2.125 0.375 4 1 C4.625 2.875 4.625 2.875 5 5 C4.34 5.66 3.68 6.32 3 7 C0.875 6.625 0.875 6.625 -1 6 C-1.625 4.125 -1.625 4.125 -2 2 C-1.34 1.34 -0.68 0.68 0 0 Z " fill="#E25550" transform="translate(101,208)"/>
<path d="M0 0 C1.32 0 2.64 0 4 0 C4.33 1.65 4.66 3.3 5 5 C3.35 5.33 1.7 5.66 0 6 C-0.38218767 4.34385343 -0.71395102 2.67542976 -1 1 C-0.67 0.67 -0.34 0.34 0 0 Z " fill="#2A2B41" transform="translate(87,84)"/>
<path d="M0 0 C1.65 0.33 3.3 0.66 5 1 C4.67 2.65 4.34 4.3 4 6 C2.35 5.67 0.7 5.34 -1 5 C-0.67 3.35 -0.34 1.7 0 0 Z " fill="#2A2B41" transform="translate(62,84)"/>
<path d="M0 0 C2.0625 0.4375 2.0625 0.4375 4 1 C3.67 2.65 3.34 4.3 3 6 C1.35 5.67 -0.3 5.34 -2 5 C-1.125 1.125 -1.125 1.125 0 0 Z " fill="#2A2B41" transform="translate(75,84)"/>
<path d="M0 0 C0.66 0.33 1.32 0.66 2 1 C0.8758824 2.29243468 -0.24932592 3.58392075 -1.375 4.875 C-2.00148438 5.59429687 -2.62796875 6.31359375 -3.2734375 7.0546875 C-4.47426834 8.4076598 -5.7208345 9.7208345 -7 11 C-6.49697411 6.59852343 -4.97554199 4.24604581 -2 1 C-1.34 0.67 -0.68 0.34 0 0 Z " fill="#242334" transform="translate(54,75)"/>
</svg>
